<svg id="Capa_1" data-name="Capa 1" xmlns="http://www.w3.org/2000/svg" viewBox="0 0 348.69 489.18"><path d="M175.36,158.4C152.6,148,150.51,124.09,179,113.32c-8.62-10.47-15.51-21.83-18.64-35.12-5.41-23-1.7-44.26,13.93-62.38,13-15.07,31.25-14,42.89,2.22,2.92,4.06,4,3.31,6.9.22C231.76,10.2,240.49,4,252.52,5.4c9.75,1.12,16.94,6.76,23.2,13.65,2.69,3,3.57,2.78,5.75-.54C292.37,2,312.19.74,325.11,16.11,340.53,34.47,344,55.76,338.54,78.72c-3.12,13.06-10.09,24.21-18.5,34.58,27.62,8.89,27.23,35.23,3.88,45.27,17.8,15.74,33.49,33.35,46.14,53.32,24.8,39.15,44.43,80.69,51.78,126.89,5.06,31.87,1.47,62.83-15.54,91.14-11.72,19.5-28.5,33.52-48.75,43.51-24.11,11.88-49.87,17.36-76.51,19.51-30.05,2.41-60,2-89.68-3.48-31.24-5.81-60.21-16.67-83.24-39.9-18.51-18.68-28.06-41.44-31.54-67.15C72.33,351.06,78.83,321.2,89.37,292c12.06-33.39,27.86-64.93,49.06-93.54A252.75,252.75,0,0,1,175.36,158.4Zm32.69-21.53c2.23-.85,4.49-1.63,6.68-2.57a85.57,85.57,0,0,1,36.51-6.93,96,96,0,0,1,48.52,14.51c5.18,3.25,10.47,1.64,15.35-.14,3-1.09,4.82-4,3.89-8.1-1.77-7.83-7.4-11.65-14-14.21-9.9-3.81-20.54-4-30.9-4.39-16.36-.67-32.77-.39-49.14,0-5.61.12-11.37.19-16.84,2-11.15.94-22.17,2.49-32.27,7.77-4.89,2.55-9,5.69-8.81,12.06.17,6.58,5,9.32,9.72,12.15s8.94,2,13.49-1.31C195.8,143.59,202.07,140.43,208.05,136.87Zm-7.7-121.66a13.84,13.84,0,0,0-11.71.46c-6.4,3.08-10.78,8.2-14,14.29C160,57.88,167.09,86.7,186.91,108.78a4.19,4.19,0,0,0,4.38,1.58c3-.72,6-1.42,9.05-2.13l30.94-2.53,28.66-.2,25.5,1.31,15.48,1.71c9.41,2.74,9.42,2.74,15-4.55,1.12-1.45,2.29-2.88,3.29-4.41,15-23.09,17.8-46.89,3.94-71.54-5.72-10.17-13.69-14.73-22.52-13.26-11.13,2.88-14.78,11.86-17.57,21.55-1.91,3.57-2.65,7.44-3.28,11.4-.43,2.72-1.54,5.62-5.21,5.09s-4-3.34-3.37-6.29c.76-3.76,1.52-7.53,2.63-11.19.7-2.33.73-4.26-.89-6.14-3.81-4.42-7.41-9.08-13-11.53a16.16,16.16,0,0,0-16.09-2.88A30.45,30.45,0,0,0,228.84,26.3c-3.81,2.76-4.88,5.86-3.45,10.81A59.13,59.13,0,0,1,228,57.05c-.16,2.63-1.45,4.33-3.87,4.55-2.77.25-4.4-1.47-4.73-4.27a16,16,0,0,1-.13-2.19A63.86,63.86,0,0,0,214.54,31C211.83,24.05,208,17.89,200.35,15.21Zm61.88,122c-9.24-.94-18.48-1.72-27.63.74A74.23,74.23,0,0,0,207,147.88c-11.82,5.3-21.6,13.45-31,22.18A163,163,0,0,0,148.4,200c-11.68,14.29-20.74,30.21-29.28,46.48C102.46,278.18,89.07,311.18,85,347.05c-3.58,31.4,1.55,61.31,21.33,87.18a103.89,103.89,0,0,0,44.25,33.41,96.36,96.36,0,0,0,25.3,9.28,198.83,198.83,0,0,0,30,5.82c6.8,1.57,13.78,1.32,20.67,2a421.3,421.3,0,0,0,44.53.11l18.8-1.78c8.24-.76,16.42-1.83,24.32-4.45l11.91-2.76c24.34-5.84,45.44-17.8,62.22-36.14s24.24-40.82,26.3-65.17c1.76-20.91-1.66-41.27-7.48-61.37a343.8,343.8,0,0,0-19.78-51.78c-5.89-12.42-11.62-25-19.78-36.17a39.17,39.17,0,0,0-1.93-4c-11.83-18.69-25.24-36.15-41.86-50.86-7.48-6.63-14.66-13.8-24.06-17.92a59.69,59.69,0,0,0-12-7C279.69,141.33,271.07,138.93,262.23,137.21Z" transform="translate(-75.26 -5.17)" fill="#291e13"/><path d="M326.09,475.9c4.38-3.68,10.21-4.74,14.74-8.17,9.69-4.26,18-10.49,25.54-17.84,3.27-3.22,6.89-6.15,9.75-9.7,24.11-29.9,29.15-64.38,23.62-101.2-2.87-19.14-9.41-37.3-16.27-55.27-4.9-12.82-10.34-25.47-17.31-37.37l-1.29-4.22c1.73-4.08-.61-8.2.1-12.32.32-1.92-.38-4.22,2.6-4.54,8.16,11.19,13.89,23.75,19.78,36.17a343.8,343.8,0,0,1,19.78,51.78c5.82,20.1,9.24,40.46,7.48,61.37-2.06,24.35-9.65,47-26.3,65.17S350.43,470.06,326.09,475.9Z" transform="translate(-75.26 -5.17)" fill="#6a4d3d"/><path d="M301.81,16.62a9.84,9.84,0,0,1-1.14-1.86c-11.13,2.88-14.78,11.86-17.57,21.55-1.91,3.57-2.65,7.44-3.28,11.4-.43,2.72-1.54,5.62-5.21,5.09s-4-3.34-3.37-6.29c.76-3.76,1.52-7.53,2.63-11.19.7-2.33.73-4.26-.89-6.14-3.81-4.42-7.41-9.08-13-11.53a16.16,16.16,0,0,0-16.09-2.88A30.45,30.45,0,0,0,228.84,26.3c-3.81,2.76-4.88,5.86-3.45,10.81A59.13,59.13,0,0,1,228,57.05c-.16,2.63-1.45,4.33-3.87,4.55-2.77.25-4.4-1.47-4.73-4.27a16,16,0,0,1-.13-2.19A63.86,63.86,0,0,0,214.54,31c-2.71-6.95-6.59-13.11-14.19-15.79a13.84,13.84,0,0,0-11.71.46c-6.4,3.08-10.78,8.2-14,14.29C160,57.88,167.09,86.7,186.91,108.78a4.19,4.19,0,0,0,4.38,1.58c3-.72,6-1.42,9.05-2.13l30.94-2.53,28.66-.19h0l25.5,1.31,15.48,1.71c7.83-10.74,14.8-21.9,16.76-35.41C320.77,51.93,317.62,32.5,301.81,16.62ZM200.35,74.05a11.44,11.44,0,0,1-.13,1.55A11.44,11.44,0,0,0,200.35,74.05Zm0,13.07c-4.77,1.36-6.95-1.75-9.19-5.09-7.17-10.7-9.48-22-4.76-34.33a34.4,34.4,0,0,1,2-3.93c1.42-2.58,3.72-4,6.39-2.69,2.88,1.44,2.43,4.05,1.08,6.63-5,9.64-4.08,19.07,1.22,28.27a14.28,14.28,0,0,0,2.2,2.35h0C199.93,81.22,203.05,83.81,200.32,87.12Z" transform="translate(-75.26 -5.17)" fill="#f0d9a1"/><path d="M367.57,225.27c-3,.32-2.28,2.62-2.6,4.54-.71,4.12,1.63,8.24-.1,12.32-2-1.29-2.51-3.56-3.57-5.46-6-10.73-11.93-21.5-19.42-31.3-7.53-12.78-16.79-24.24-26.65-35.25-3.42-4.84-8.13-8.45-12.07-12.79-1.33-1.46-3.28-2.49-3.44-4.8,9.4,4.12,16.58,11.29,24.06,17.92,16.62,14.71,30,32.17,41.86,50.86A39.17,39.17,0,0,1,367.57,225.27Z" transform="translate(-75.26 -5.17)" fill="#6a4d3d"/><path d="M152.89,222.19c8.17-10.6,16.32-21.23,25.43-31.06,1-.73,2-1.54,3.12-2.16,1.61-.9,3.4-1.84,4.89.05,1.35,1.72,2.42,3.48.86,5.89-2.2,3.41-5.21,6-7.93,8.92-1.34,1.43-3.12,2.59-3.29,4.82-8.3,5.82-12.15,15.1-17.75,23-1.74,2.46-3.44,4.08-6.52,3.82-4.77-1.47-3.58-4.62-2.19-7.81C150.38,225.68,152.74,224.62,152.89,222.19Z" transform="translate(-75.26 -5.17)" fill="#6a4d3d"/><path d="M143.88,253.84c-.19.44-.5,1.3-.89,2.12-4.25,8.93-8.49,17.88-12.81,26.79-1.19,2.46-2.38,5.45-6,3.9s-3.09-4.09-1.75-7.25a230.75,230.75,0,0,1,13.38-27.7c1.08-1.82,2-3.66,4.63-2.63C142.36,249.84,144.1,250.85,143.88,253.84Z" transform="translate(-75.26 -5.17)" fill="#6a4d3d"/><path d="M288.55,370.81c-5.42,5.85-11.4,11-18.74,14.31-4.81.59-8.84,1.63-7.67,8.19.68,3.75-2.37,5-5.5,5.15-3.65.2-7.31,0-11,.06-5.14.06-9.12-.35-9.31-7.46-.13-5.06-5.38-2.44-8.39-3.14-7.31-1.3-13.93-4.66-20.91-7a9.34,9.34,0,0,1-2.19-6.58c.09-6.42.13-12.84,0-19.26-.07-3,.75-5.38,3.21-7.13,2.82.09,5.32,1.24,7.84,2.31a121.31,121.31,0,0,0,17.1,5.93c2.66.68,3.7.39,3.65-2.57-.13-6.25-.08-12.5,0-18.75,0-1.84-.53-3.24-2.25-4-10.24-4.71-18.12-12.16-24.59-21.24-.49-5-3-9.52-3.06-14.74-.06-6.76.22-13.36,2.59-19.74a42.64,42.64,0,0,1,24.47-20.67c5.36-1.87,2-6.06,2.58-9.21.82-3.48,3.28-4.49,6.54-4.45,5.65.07,11.3.07,17,.09,2.83,1.76,2.56,4.56,2.58,7.34,0,1.7-.72,4.15,1.88,4.51,7.66,1.06,14.78,4,22.19,5.91,1.3.6,2.57,1.3,3.91,1.78,4,1.45,4.76,4.06,3.17,7.82-2.5,5.9-4.86,11.85-7.28,17.78-2,3.66-4.8,4.61-8.66,2.92-2.84-1.24-5.77-2.3-8.71-3.26-6.51-2.13-6.53-2.09-6.53,4.47a70.77,70.77,0,0,1-.05,7.71c-.71,6.17.47,10.59,7.3,13,7.15,2.5,11.9,8.87,17.84,13.38C297.1,339.56,297.71,355.07,288.55,370.81Zm-43.34-27.56c0,7.36.21,12.71-.06,18-.21,3.93-2.15,5.93-6.6,4.92-5.36-1.21-10.76-2.15-16-3.92-9-3-8.8-2.93-9.07,6.87-.11,3.82,1.14,5.53,4.64,6.68a83.56,83.56,0,0,0,21,4.11c3.7.22,6.15,1.66,6.1,5.53,0,3.37,1.61,3.83,4.43,3.89,3.16.07,4.3-1.12,4.1-4.2-.25-3.72,1.6-5.78,5.35-6.36a29.34,29.34,0,0,0,5.81-1.73c10.33-3.93,18.41-10.23,20.52-21.74,2.33-12.73-.94-23.6-11.88-31.51a73.13,73.13,0,0,0-15.12-8.94c-2.27-.92-4.6-2.16-4.62-4.94-.07-10.3-.07-20.61.17-30.91.08-3.65,2.42-5.16,6.05-4.34,4.11.93,8.59,1.15,12.23,3,6.17,3.15,7.89.17,10-4.86,2-4.64.45-6.45-3.68-7.47-6-1.49-12-3.39-18.18-4.19-5.13-.66-7.34-2.76-6.72-7.8.43-3.55-1.69-3.74-4.4-3.74s-4.45.4-4,3.56c.9,6.38-2.42,8.7-8.28,9.75-11.11,2-20.34,13.17-21.49,24.23-1.51,14.52,3.95,26.18,16.69,31.93S247.57,333.26,245.21,343.25Z" transform="translate(-75.26 -5.17)" fill="#291e13"/><path d="M399.74,339c-2.87-19.14-9.41-37.3-16.27-55.27-4.9-12.82-10.34-25.47-17.31-37.37l-1.29-4.22c-2-1.29-2.51-3.56-3.57-5.46-6-10.73-11.93-21.5-19.42-31.3-7.53-12.78-16.79-24.24-26.65-35.25a4.38,4.38,0,0,0-1.2,3.36,4.38,4.38,0,0,1,1.2-3.36c-3.42-4.84-8.13-8.45-12.07-12.79-1.33-1.46-3.28-2.49-3.44-4.8a59.69,59.69,0,0,0-12-7c-8-4.23-16.64-6.63-25.48-8.35-9.24-.94-18.48-1.72-27.63.74A74.23,74.23,0,0,0,207,147.88c-11.82,5.3-21.6,13.45-31,22.18A163,163,0,0,0,148.4,200c-11.68,14.29-20.74,30.21-29.28,46.48C102.46,278.18,89.07,311.18,85,347.05c-3.58,31.4,1.55,61.31,21.33,87.18a103.89,103.89,0,0,0,44.25,33.41c.31-2.05.53-4.1.69-6.15-.16,2.05-.38,4.1-.69,6.15a96.36,96.36,0,0,0,25.3,9.28,198.83,198.83,0,0,0,30,5.82h0c6.8,1.57,13.78,1.32,20.67,2a421.3,421.3,0,0,0,44.53.11l18.8-1.78c8.24-.76,16.42-1.83,24.32-4.45l11.91-2.76c4.38-3.68,10.21-4.74,14.74-8.17h0c9.69-4.26,18-10.49,25.54-17.84,3.27-3.22,6.89-6.15,9.75-9.7C400.23,410.29,405.27,375.81,399.74,339ZM143,256c-4.25,8.93-8.49,17.88-12.81,26.79-1.19,2.46-2.38,5.45-6,3.9s-3.09-4.09-1.75-7.25c4-9.46,8.14-18.84,13.38-27.7,1.08-1.82,2-3.66,4.63-2.63,2,.77,3.7,1.78,3.48,4.77C143.69,254.28,143.38,255.14,143,256Zm44.2-61.05c-2.2,3.41-5.21,6-7.93,8.92-1.34,1.43-3.12,2.59-3.29,4.82q0,132.48,0,265,0-132.48,0-265c-8.3,5.82-12.15,15.1-17.75,23-1.74,2.46-3.44,4.08-6.52,3.82-.06,2.25-.11,4.49-.15,6.74,0-2.25.09-4.49.15-6.74-4.77-1.47-3.59-4.62-2.19-7.81.87-2,3.23-3,3.38-5.47,8.17-10.6,16.32-21.23,25.43-31.06-1.31-1.13-1.32-2.52-1.23-3.92-.09,1.4-.08,2.79,1.23,3.92,1-.73,2-1.54,3.12-2.16,1.61-.9,3.4-1.84,4.89.05C187.68,190.74,188.75,192.5,187.19,194.91Zm83.59,192.92a13.78,13.78,0,0,1,.23,1.81A13.78,13.78,0,0,0,270.78,387.83Zm17.77-17c-5.42,5.85-11.4,11-18.74,14.31h0c-4.81.59-8.84,1.63-7.66,8.19.67,3.75-2.38,5-5.51,5.15-3.65.2-7.31,0-11,.06-5.14.06-9.12-.35-9.31-7.46-.13-5.06-5.38-2.45-8.39-3.14-7.31-1.3-13.93-4.66-20.91-7a8.11,8.11,0,0,0-1,2.73,8.11,8.11,0,0,1,1-2.73,9.34,9.34,0,0,1-2.19-6.58c.09-6.42.13-12.84,0-19.26-.07-3,.75-5.38,3.21-7.13,0-4.87,0-9.75,0-14.63,0,4.88,0,9.76,0,14.63,2.82.09,5.32,1.24,7.84,2.31a121.31,121.31,0,0,0,17.1,5.93c2.66.68,3.7.39,3.65-2.57-.13-6.25-.08-12.5,0-18.75,0-1.84-.53-3.24-2.25-4-10.24-4.71-18.12-12.16-24.59-21.24-.49-5-3-9.52-3.06-14.74-.06-6.76.22-13.36,2.59-19.74a5.84,5.84,0,0,1-1.26-1.28,5.84,5.84,0,0,0,1.26,1.28,42.64,42.64,0,0,1,24.47-20.67c5.36-1.87,2-6.06,2.58-9.21h0c.82-3.48,3.28-4.49,6.54-4.45,5.65.07,11.3.07,17,.09a3.91,3.91,0,0,0,.54-.28,5.44,5.44,0,0,1-.54.29c2.83,1.75,2.56,4.55,2.58,7.33,0,1.7-.72,4.15,1.88,4.51,7.66,1.06,14.78,4,22.19,5.91a7.4,7.4,0,0,0,.77-1.8,9.9,9.9,0,0,0,.33-1.87,9.9,9.9,0,0,1-.33,1.87,7.4,7.4,0,0,1-.77,1.8c1.3.6,2.57,1.3,3.91,1.78,4,1.45,4.76,4.06,3.17,7.82-2.5,5.9-4.86,11.85-7.28,17.78h0c-2,3.66-4.8,4.61-8.66,2.92-2.84-1.24-5.77-2.3-8.71-3.26-6.51-2.13-6.53-2.09-6.53,4.47a70.77,70.77,0,0,1-.05,7.71c-.71,6.17.47,10.59,7.3,13,7.15,2.5,11.9,8.87,17.84,13.38C297.1,339.56,297.71,355.07,288.55,370.81Zm91-59.19c-2.36-6.13-4.52-12.34-6.79-18.51-.88-2.4-2-4.73-2.67-7.18a4,4,0,0,1,2.45-4.93,4.21,4.21,0,0,1,5.39,1.37c1.27,1.72,10.24,25.74,10.22,28.11-.16,1.64-.49,3.73-2.9,4.29A4.63,4.63,0,0,1,379.54,311.62Zm14.28,56.06c-3.9.25-4.31-3-4.66-6.12-1.1-10-1.75-20-4.18-29.79a10.88,10.88,0,0,1-.09-2.74c0-2.22-.15-4.73,2.89-5.07s5,1.32,5.64,4.14c1.21,5.34,2.24,10.72,3.19,16.12s-.27,11,1.57,15.69C397.92,363.73,398,367.41,393.82,367.68Z" transform="translate(-75.26 -5.17)" fill="#f0d9a1"/><path d="M208.08,117c5.47-1.79,11.23-1.86,16.84-2,16.37-.37,32.78-.65,49.14,0,10.36.42,21,.58,30.9,4.39,6.64,2.56,12.27,6.38,14,14.21.93,4.14-.89,7-3.89,8.1-4.88,1.78-10.17,3.39-15.35.14a96,96,0,0,0-48.52-14.51,85.57,85.57,0,0,0-36.51,6.93c-2.19.94-4.45,1.72-6.68,2.57Z" transform="translate(-75.26 -5.17)" fill="#6a4d3d"/><path d="M300.92,108.52c7.83-10.74,14.8-21.9,16.76-35.41,3.09-21.18-.06-40.61-15.87-56.49a9.84,9.84,0,0,1-1.14-1.86c8.83-1.47,16.8,3.09,22.52,13.26,13.86,24.65,11.08,48.45-3.94,71.54-1,1.53-2.17,3-3.29,4.41C310.34,111.26,310.33,111.26,300.92,108.52Z" transform="translate(-75.26 -5.17)" fill="#6a4d3d"/><path d="M208.08,117l0,19.87c-6,3.56-12.25,6.72-17.84,10.8-4.55,3.31-8.69,4.18-13.49,1.31s-9.55-5.57-9.72-12.15c-.17-6.37,3.92-9.51,8.81-12.06C185.91,119.49,196.93,117.94,208.08,117Z" transform="translate(-75.26 -5.17)" fill="#6a4d3d"/><path d="M200.32,87.12c-4.77,1.36-6.95-1.75-9.19-5.09-7.17-10.7-9.48-22-4.76-34.33a34.4,34.4,0,0,1,2-3.93c1.42-2.58,3.72-4,6.39-2.69,2.88,1.44,2.43,4.05,1.08,6.63-5,9.64-4.08,19.07,1.22,28.27a14.28,14.28,0,0,0,2.2,2.35C199.93,81.22,203.05,83.81,200.32,87.12Z" transform="translate(-75.26 -5.17)" fill="#6a4d3d"/><path d="M245.21,343.25c2.36-10-.33-18.43-13-24.14s-18.2-17.41-16.69-31.93c1.15-11.06,10.38-22.24,21.49-24.23,5.86-1.05,9.18-3.37,8.28-9.75-.45-3.16,1.42-3.56,4-3.56s4.83.19,4.4,3.74c-.62,5,1.59,7.14,6.72,7.8,6.14.8,12.14,2.7,18.18,4.19,4.13,1,5.66,2.83,3.68,7.47-2.15,5-3.87,8-10,4.86-3.64-1.86-8.12-2.08-12.23-3-3.63-.82-6,.69-6.05,4.34-.24,10.3-.24,20.61-.17,30.91,0,2.78,2.35,4,4.62,4.94a73.13,73.13,0,0,1,15.12,8.94c10.94,7.91,14.21,18.78,11.88,31.51-2.11,11.51-10.19,17.81-20.52,21.74a29.34,29.34,0,0,1-5.81,1.73c-3.75.58-5.6,2.64-5.35,6.36.2,3.08-.94,4.27-4.1,4.2-2.82-.06-4.48-.52-4.43-3.89.05-3.87-2.4-5.31-6.1-5.53a83.56,83.56,0,0,1-21-4.11c-3.5-1.15-4.75-2.86-4.64-6.68.27-9.8.08-9.9,9.07-6.87,5.24,1.77,10.64,2.71,16,3.92,4.45,1,6.39-1,6.6-4.92C245.42,356,245.21,350.61,245.21,343.25Zm8.76,6.26h-.25c0,2.75,0,5.51,0,8.27s.27,5.43,3.06,6.52,5.33-.55,7.36-2.54c7.55-7.37,6.08-20.75-2.85-26.28-3.71-2.3-6.6-1.29-7.2,3C253.57,342.11,254,345.84,254,349.51Zm-8.78-58.78h.08c0-2.75.1-5.51,0-8.26a4.82,4.82,0,0,0-3.23-4.68c-2.28-.82-3.72.37-5.16,2-5.75,6.65-5.84,15.07-.4,22.05,1.4,1.79,2.86,2.89,5,2.52,2.55-.44,3.56-2.55,3.72-4.86C245.34,296.61,245.19,293.66,245.19,290.73Z" transform="translate(-75.26 -5.17)" fill="#3b5824"/><path d="M398.18,359.91c-.26,3.82-.18,7.5-4.36,7.77-3.9.25-4.31-3-4.66-6.12-1.1-10-1.75-20-4.18-29.79a10.88,10.88,0,0,1-.09-2.74c0-2.22-.15-4.73,2.89-5.07s5,1.32,5.64,4.14c1.21,5.34,2.24,10.72,3.19,16.12S396.34,355.23,398.18,359.91Z" transform="translate(-75.26 -5.17)" fill="#6a4d3d"/><path d="M388.14,310.48c-.16,1.64-.49,3.73-2.9,4.29a4.63,4.63,0,0,1-5.7-3.15c-2.36-6.13-4.52-12.34-6.79-18.51-.88-2.4-2-4.73-2.67-7.18a4,4,0,0,1,2.45-4.93,4.21,4.21,0,0,1,5.39,1.37C379.19,284.09,388.16,308.11,388.14,310.48Z" transform="translate(-75.26 -5.17)" fill="#6a4d3d"/><path d="M254,349.51c0-3.67-.4-7.4.11-11,.6-4.32,3.49-5.33,7.2-3,8.93,5.53,10.4,18.91,2.85,26.28-2,2-4.44,3.7-7.36,2.54s-3.1-3.82-3.06-6.52,0-5.52,0-8.27Z" transform="translate(-75.26 -5.17)" fill="#291e13"/><path d="M245.19,290.73c0,2.93.15,5.88-.05,8.8-.16,2.31-1.17,4.42-3.72,4.86-2.11.37-3.57-.73-5-2.52-5.44-7-5.35-15.4.4-22.05,1.44-1.66,2.88-2.85,5.16-2a4.82,4.82,0,0,1,3.23,4.68c.13,2.75,0,5.51,0,8.26Z" transform="translate(-75.26 -5.17)" fill="#291e13"/></svg>